<svg width="24" height="24" viewBox="0 0 24 24" fill="none" xmlns="http://www.w3.org/2000/svg">
    <rect x="9" y="10" width="15" height="14" rx="7" fill="url(#paint0_linear_16_2)"/>
    <path fill-rule="evenodd" clip-rule="evenodd" d="M18.8522 13.3577L16.6742 13.3475L14.5076 13.3372C14.5076 13.9473 13.9531 14.4447 13.2728 14.4447C13.2671 14.4447 13.2671 14.4447 13.2614 14.4447L13.2442 16.9261C13.2385 18.454 13.9817 19.2794 15.5423 20.1459V19.5614C15.1079 19.3102 14.7534 19.059 14.479 18.777C13.9988 18.2899 13.7702 17.7259 13.7759 16.9364L13.7873 14.8394H13.7987C14.3761 14.8394 14.8449 14.419 14.8449 13.9063L16.6799 13.9166L18.5207 13.9268C18.5321 14.4344 18.9894 14.8394 19.5554 14.8446L19.5382 16.9671C19.5325 18.4694 18.6693 19.1615 16.8686 20.0228V20.5919C17.909 20.0946 18.6865 19.6486 19.2124 19.1205C19.7783 18.5514 20.0584 17.8849 20.0642 16.962L20.0756 14.4498C19.4068 14.4395 18.8694 13.9576 18.8522 13.3577Z" fill="white"/>
    <path fill-rule="evenodd" clip-rule="evenodd" d="M16.5885 17.4952C16.4113 17.4952 16.074 17.5106 15.7539 17.567C15.6967 17.5773 15.651 17.6285 15.651 17.6798C15.6567 17.931 15.6796 18.6539 15.6853 19.6486C15.6853 19.8331 15.6853 20.028 15.6853 20.2279C15.9711 20.3817 16.68 20.6996 16.7028 20.6842C16.7085 20.4843 16.7143 20.2741 16.72 20.0895C16.7486 18.777 16.7257 17.8951 16.7143 17.5978C16.7143 17.5414 16.6571 17.4901 16.5885 17.4952Z" fill="white"/>
    <path fill-rule="evenodd" clip-rule="evenodd" d="M16.5427 14.6856C16.4227 14.66 16.0683 14.7112 15.9311 14.742C15.7939 14.7728 15.7024 14.8548 15.6795 15.0137C15.6624 15.1522 15.6681 16.7774 15.6681 17.1927C15.8339 17.1722 15.9997 17.1568 16.1597 17.1414C16.3312 17.1261 16.5027 17.1158 16.6742 17.1056C16.6685 17.0338 16.6513 16.9722 16.6228 16.9517C16.5827 16.921 16.5942 16.8953 16.6914 16.7877C16.7828 16.68 16.7199 16.5159 16.6285 16.4288C16.5427 16.3365 16.5827 16.3006 16.6571 16.2288C16.7314 16.1622 16.7142 15.9622 16.6399 15.8751C16.5656 15.7879 16.6056 15.752 16.6571 15.6854C16.7085 15.6187 16.7199 15.4598 16.6456 15.3367C16.5713 15.2137 16.617 15.2034 16.7028 15.0342C16.7885 14.8753 16.6628 14.7164 16.5427 14.6856Z" fill="white"/>
    <path fill-rule="evenodd" clip-rule="evenodd" d="M17.909 17.2491C18.212 16.9466 18.3035 16.4852 18.2692 16.0186C18.2292 15.5367 18.0519 15.0496 17.8176 14.7266C17.5889 14.4088 17.0515 14.3575 16.6628 14.4088C16.4113 14.4446 16.1712 14.5164 15.9254 14.5677C15.6624 14.6241 15.508 14.6036 15.6395 14.8856C15.7196 14.7164 15.9482 14.6702 16.1483 14.6395C16.2912 14.619 16.4398 14.5985 16.5713 14.6395C16.7085 14.6805 16.8229 14.8035 16.7943 14.9266C16.9715 14.8958 17.223 14.8651 17.3888 14.9317C17.7147 15.065 17.7833 15.5008 17.8004 15.7828C17.8176 16.1007 17.7718 16.4442 17.6575 16.7467C17.6175 16.8441 17.5717 16.9466 17.486 17.0184C17.3774 17.1107 17.1659 17.1363 17.0172 17.1568C16.3884 17.2389 15.7367 17.203 15.1422 17.3927C15.0564 17.4183 14.9764 17.4491 14.9249 17.5209C14.8964 17.5619 14.8849 17.6131 14.9078 17.6593C14.9592 17.7721 15.1479 17.7516 15.2794 17.7157C15.3308 17.7003 15.3823 17.6849 15.4337 17.6695C15.4566 17.6644 15.4795 17.6542 15.4909 17.6439C15.4909 17.6388 15.4966 17.6388 15.4966 17.6337C15.5138 17.608 15.4966 17.5721 15.5023 17.5414C15.5138 17.4696 15.6109 17.444 15.691 17.4388C15.9882 17.4132 16.2855 17.3927 16.577 17.367C16.6399 17.3619 16.7028 17.3568 16.76 17.3824C16.8171 17.4081 16.8572 17.4696 16.8229 17.5209C17.2002 17.5209 17.6689 17.4952 17.909 17.2491Z" fill="white"/>
    <defs>
        <linearGradient id="paint0_linear_16_2" x1="9.52326" y1="24" x2="23.5479" y2="9.03164" gradientUnits="userSpaceOnUse">
            <stop stop-color="#00EAFF"/>
            <stop offset="0.209904" stop-color="#0080FF"/>
            <stop offset="0.513777" stop-color="#8000FF"/>
            <stop offset="0.723689" stop-color="#E619E6"/>
            <stop offset="1" stop-color="#E51A5D"/>
        </linearGradient>
    </defs>
</svg>
