<svg width="249" height="51" viewBox="0 0 249 51" fill="none" xmlns="http://www.w3.org/2000/svg">
    <g clip-path="url(#clip0_48_812)">
        <path fill-rule="evenodd" clip-rule="evenodd" d="M34.6899 0.141446L21.2172 0.0707232L7.81511 0C7.81511 4.20803 4.38504 7.6381 0.17701 7.6381C0.141649 7.6381 0.141648 7.6381 0.106287 7.6381L0.000202428 24.7531C-0.0351592 35.2909 4.56185 40.9841 14.2156 46.9602V42.929C11.5281 41.1962 9.33566 39.4635 7.6383 37.5186C4.66793 34.1593 3.25347 30.2695 3.28883 24.8238L3.35955 10.3609H3.43027C7.00179 10.3609 9.90145 7.46129 9.90145 3.92514L21.2525 3.99586L32.6389 4.06658C32.7097 7.56738 35.5386 10.3609 39.0394 10.3963L38.9333 25.036C38.8979 35.3969 33.5583 40.1708 22.4194 46.1115V50.0366C28.8553 46.6066 33.6644 43.5301 36.9177 39.8879C40.4185 35.9627 42.1512 31.3657 42.1866 25.0006L42.2573 7.67346C38.12 7.60274 34.796 4.27875 34.6899 0.141446Z" fill="url(#paint0_linear_48_812)"/>
        <path fill-rule="evenodd" clip-rule="evenodd" d="M20.686 28.6782C19.5898 28.6782 17.5035 28.7843 15.5232 29.1733C15.1696 29.244 14.8867 29.5976 14.8867 29.9512C14.9221 31.684 15.0635 36.6699 15.0989 43.5301C15.0989 44.8031 15.0989 46.1468 15.0989 47.5259C16.867 48.5868 21.2518 50.7792 21.3933 50.6731C21.4286 49.294 21.464 47.8442 21.4993 46.5712C21.6761 37.5186 21.5347 31.4364 21.464 29.3855C21.464 28.9965 21.1104 28.6429 20.686 28.6782Z" fill="url(#paint1_linear_48_812)"/>
        <path fill-rule="evenodd" clip-rule="evenodd" d="M20.4043 9.2999C19.6617 9.12309 17.4692 9.47671 16.6206 9.68888C15.7719 9.90104 15.2061 10.4668 15.0647 11.563C14.9586 12.5178 14.9939 23.7274 14.9939 26.5917C16.0194 26.4503 17.0449 26.3442 18.035 26.2381C19.0959 26.132 20.1567 26.0613 21.2176 25.9906C21.1822 25.4955 21.0761 25.0712 20.8993 24.9297C20.6518 24.7175 20.7225 24.5407 21.3237 23.7981C21.8894 23.0556 21.5005 21.924 20.9347 21.3228C20.4043 20.6863 20.6518 20.4388 21.1115 19.9437C21.5712 19.484 21.4651 18.1049 21.0054 17.5038C20.5457 16.9026 20.7932 16.6551 21.1115 16.1954C21.4297 15.7357 21.5005 14.6395 21.0408 13.7908C20.5811 12.9421 20.864 12.8714 21.3944 11.7045C21.9248 10.6083 21.1469 9.51207 20.4043 9.2999Z" fill="url(#paint2_linear_48_812)"/>
        <path fill-rule="evenodd" clip-rule="evenodd" d="M28.8549 26.9806C30.7291 24.8942 31.2949 21.7117 31.0827 18.4938C30.8352 15.1698 29.739 11.8104 28.2891 9.58267C26.8747 7.39025 23.5507 7.03664 21.1461 7.39025C19.5902 7.63778 18.105 8.13284 16.5845 8.48646C14.9578 8.87544 14.0031 8.73399 14.8164 10.6789C15.3114 9.51195 16.7259 9.19369 17.9636 8.98152C18.8476 8.84008 19.767 8.69863 20.5803 8.98152C21.429 9.26442 22.1362 10.1131 21.9594 10.9618C23.0556 10.7496 24.6115 10.5374 25.637 10.9971C27.6526 11.9165 28.077 14.9223 28.183 16.8672C28.2891 19.0596 28.0062 21.4288 27.299 23.5151C27.0515 24.187 26.7686 24.8942 26.2382 25.3893C25.5663 26.0258 24.2579 26.2026 23.3385 26.3441C19.4487 26.9098 15.4175 26.6623 11.7399 27.9707C11.2095 28.1475 10.7144 28.3597 10.3962 28.8547C10.2194 29.1376 10.1486 29.4912 10.2901 29.8095C10.6083 30.5875 11.7753 30.446 12.5886 30.1985C12.9068 30.0924 13.2251 29.9863 13.5434 29.8802C13.6848 29.8449 13.8262 29.7741 13.897 29.7034C13.897 29.668 13.9323 29.668 13.9323 29.6327C14.0384 29.4559 13.9323 29.2083 13.9677 28.9962C14.0384 28.5011 14.6396 28.3243 15.1346 28.2889C16.9734 28.1121 18.8122 27.9707 20.6157 27.7939C21.0046 27.7585 21.3936 27.7232 21.7472 27.9C22.1009 28.0768 22.3484 28.5011 22.1362 28.8547C24.4701 28.8547 27.3697 28.6779 28.8549 26.9806Z" fill="url(#paint3_linear_48_812)"/>
        <path d="M184.4 41.9998H182.2L177.3 24.1998L172.4 41.9998H170.2L164.5 19.7998H167L171.3 37.6998L176.2 19.7998H178.3L183.2 37.6998L187.5 19.7998H190L184.4 41.9998Z" fill="white"/>
        <path d="M200.8 41.9996V40.4996C200.2 41.0996 199.5 41.5996 198.9 41.7996C198.2 41.9996 197.4 42.1996 196.4 42.1996C195.3 42.1996 194.5 42.0996 193.8 41.8996C193.1 41.6996 192.5 41.2996 192.1 40.7996C191.7 40.3996 191.4 39.9996 191.2 39.3996C191 38.8996 190.9 38.2996 190.9 37.6996C190.9 36.3996 191.4 35.2996 192.3 34.4996C193.2 33.6996 194.5 33.2996 196.2 33.2996H200.8V31.7996C200.8 30.6996 200.5 29.7996 199.9 29.2996C199.3 28.6996 198.3 28.4996 196.9 28.4996C195.9 28.4996 195.1 28.5996 194.6 28.8996C194.1 29.1996 193.5 29.5996 193.1 30.2996L191.6 28.8996C192.3 27.9996 193 27.3996 193.9 27.0996C194.7 26.7996 195.8 26.5996 197 26.5996C199.1 26.5996 200.6 26.9996 201.6 27.8996C202.6 28.7996 203.1 29.9996 203.1 31.6996V42.0996H200.8V41.9996ZM200.8 34.8996H196.5C194.2 34.8996 193.1 35.7996 193.1 37.5996C193.1 38.4996 193.4 39.1996 193.9 39.5996C194.4 39.9996 195.4 40.1996 196.6 40.1996C197.3 40.1996 197.9 40.0996 198.5 39.9996C199.1 39.8996 199.6 39.5996 200.1 39.0996C200.6 38.5996 200.9 37.6996 200.9 36.4996V34.8996H200.8Z" fill="white"/>
        <path d="M212.4 41.9998C211 41.9998 210.1 41.5998 209.4 40.7998C208.8 39.9998 208.5 38.9998 208.5 37.8998V19.7998H210.7V37.7998C210.7 38.4998 210.8 39.0998 211.1 39.4998C211.4 39.8998 211.9 40.0998 212.7 40.0998H213.9V41.9998H212.4Z" fill="white"/>
        <path d="M221.6 41.9998C220.2 41.9998 219.3 41.5998 218.6 40.7998C218 39.9998 217.7 38.9998 217.7 37.8998V19.7998H219.9V37.7998C219.9 38.4998 220 39.0998 220.3 39.4998C220.6 39.8998 221.1 40.0998 221.9 40.0998H223.1V41.9998H221.6Z" fill="white"/>
        <path d="M227.7 34.9C227.7 36.6 228.1 37.9 228.9 38.8C229.7 39.7 230.8 40.2 232.3 40.2C233.2 40.2 233.9 40.1 234.5 39.8C235.1 39.5 235.7 39.1 236.3 38.5L237.8 39.8C237.4 40.2 237 40.5 236.6 40.8C236.2 41.1 235.8 41.3 235.4 41.5C235 41.7 234.5 41.9 234 42C233.5 42.1 232.9 42.2 232.2 42.2C231.2 42.2 230.3 42 229.4 41.7C228.5 41.4 227.9 40.9 227.3 40.3C226.7 39.7 226.3 38.8 225.9 37.9C225.6 36.9 225.4 35.7 225.4 34.4C225.4 31.9 226 30 227.1 28.6C228.2 27.2 229.8 26.5 231.7 26.5C233.7 26.5 235.2 27.2 236.3 28.5C237.4 29.8 238 31.6 238 33.9V34.9H227.7ZM235.7 32.4C235.7 32.2 235.7 32 235.6 31.8C235.6 31.6 235.5 31.4 235.5 31.3C235.5 31.2 235.4 30.9 235.3 30.7C235 30 234.5 29.4 233.9 29C233.3 28.6 232.5 28.4 231.7 28.4C230.9 28.4 230.2 28.6 229.5 29C228.9 29.4 228.4 30 228.1 30.7C227.9 31.1 227.8 31.5 227.8 31.8C227.7 32.1 227.7 32.6 227.7 33.2H235.8C235.8 32.9 235.7 32.7 235.7 32.4Z" fill="white"/>
        <path d="M247.1 42C246.4 42 245.9 41.9 245.4 41.7C244.9 41.5 244.5 41.2 244.2 40.8C243.9 40.4 243.6 40 243.5 39.5C243.3 39 243.3 38.5 243.3 37.9V28.5H241.4V26.8H243.3V22H245.5V26.8H248.8V28.5H245.5V37.8C245.5 38.5 245.7 39.1 246 39.5C246.3 39.9 246.9 40.1 247.6 40.1H248.8V42H247.1Z" fill="white"/>
        <path d="M81.8 20.3C81.8 22.1 81.5 23.5 80.8 24.7C80.1 25.9 79.3 26.9 78.2 27.6C77.1 28.3 75.8 28.9 74.4 29.2C73 29.5 71.5 29.7 69.9 29.7H68.5C67.3 29.7 66.3 30.7 66.3 31.9V39.6C66.3 40.4 65.6 41.1 64.8 41.1H59V13.2C59 12 60 11 61.2 11H70.1C71.7 11 73.3 11.2 74.7 11.5C76.1 11.8 77.4 12.4 78.4 13.1C79.5 13.8 80.3 14.8 80.9 16C81.5 17.1 81.8 18.6 81.8 20.3ZM74.6 20.4C74.6 19.7 74.5 19.1 74.2 18.7C73.9 18.2 73.5 17.9 73 17.6C72.5 17.3 72 17.2 71.4 17.1C70.8 17 70.2 17 69.5 17H67.8C67 17 66.3 17.7 66.3 18.5V24.1H69.4C70.1 24.1 70.7 24 71.4 23.9C72 23.8 72.6 23.6 73.1 23.3C73.6 23 74 22.6 74.3 22.2C74.5 21.6 74.6 21.1 74.6 20.4Z" fill="white"/>
        <path d="M98.3002 41.1999V38.2999H98.2002C97.9002 38.7999 97.6002 39.1999 97.2002 39.6999C96.8002 40.1999 96.3002 40.4999 95.8002 40.7999C95.2002 41.0999 94.6002 41.3999 94.0002 41.5999C93.3002 41.7999 92.6002 41.8999 91.9002 41.8999C90.5002 41.8999 89.3002 41.5999 88.3002 41.0999C87.3002 40.5999 86.5002 39.8999 85.9002 39.0999C85.3002 38.2999 84.9002 37.3999 84.6002 36.2999C84.3002 35.2999 84.2002 34.1999 84.2002 33.0999V22.1999C84.2002 20.9999 85.2002 19.9999 86.4002 19.9999H91.2002V31.4999C91.2002 32.0999 91.2002 32.6999 91.3002 33.1999C91.4002 33.6999 91.5002 34.1999 91.8002 34.5999C92.0002 34.9999 92.4002 35.3999 92.8002 35.5999C93.2002 35.7999 93.7002 35.9999 94.4002 35.9999C95.6002 35.9999 96.5002 35.4999 97.2002 34.5999C97.8002 33.6999 98.2002 32.5999 98.2002 31.3999V22.0999C98.2002 20.8999 99.2002 19.8999 100.4 19.8999H105V38.8999C105 40.0999 104 41.0999 102.8 41.0999H98.3002V41.1999Z" fill="white"/>
        <path d="M108.4 41.2V11.2C108.4 10 109.4 9 110.6 9H115.5V39C115.5 40.2 114.5 41.2 113.3 41.2H108.4Z" fill="white"/>
        <path d="M131.1 25.2002C130.9 25.1002 130.7 25.0002 130.5 24.9002C129.7 24.5002 128.9 24.3002 128.1 24.3002C127.4 24.3002 126.8 24.4002 126.3 24.7002C125.8 25.0002 125.5 25.4002 125.5 26.0002C125.5 26.6002 125.8 27.0002 126.4 27.3002C127 27.6002 128 27.8002 129.4 28.2002C130.2 28.4002 131 28.6002 131.8 28.9002C132.6 29.2002 133.3 29.6002 134 30.1002C134.7 30.6002 135.2 31.2002 135.6 32.0002C136 32.7002 136.2 33.6002 136.2 34.6002C136.2 35.9002 135.9 37.1002 135.4 38.0002C134.9 38.9002 134.2 39.7002 133.3 40.2002C132.4 40.8002 131.5 41.2002 130.4 41.4002C129.3 41.7002 128.2 41.8002 127.2 41.8002C125.5 41.8002 123.8 41.5002 122.1 41.0002C120.4 40.4002 119.1 39.6002 118 38.6002L120.5 35.9002C121.2 35.1002 122.5 35.0002 123.4 35.6002C123.7 35.8002 124 36.0002 124.2 36.1002C125.1 36.6002 126.1 36.8002 127.1 36.8002C127.7 36.8002 128.2 36.7002 128.8 36.4002C129.4 36.1002 129.6 35.7002 129.6 35.0002C129.6 34.3002 129.3 33.9002 128.6 33.6002C127.9 33.3002 126.9 33.0002 125.4 32.6002C124.7 32.4002 123.9 32.2002 123.2 31.9002C122.5 31.6002 121.8 31.2002 121.2 30.8002C120.6 30.3002 120.1 29.7002 119.8 29.0002C119.4 28.3002 119.2 27.4002 119.2 26.4002C119.2 25.1002 119.5 24.0002 120 23.1002C120.5 22.2002 121.2 21.5002 122.1 20.9002C123 20.3002 123.9 19.9002 124.9 19.6002C125.9 19.3002 127 19.2002 128 19.2002C129.6 19.2002 131.1 19.4002 132.7 19.9002C134.2 20.4002 135.5 21.1002 136.5 22.1002L134 24.7002C133.1 25.6002 131.9 25.7002 131.1 25.2002Z" fill="white"/>
        <path d="M153.6 27.0001C153.6 26.8001 153.5 26.7001 153.5 26.7001C153.3 26.2001 153 25.8001 152.7 25.5001C151.9 24.7001 151 24.3001 149.6 24.3001C148.9 24.3001 148.3 24.4001 147.7 24.6001C147.1 24.8001 146.6 25.1001 146.2 25.5001C145.8 25.9001 145.4 26.3001 145.2 26.8001C144.9 27.3001 144.8 27.8001 144.8 28.3001H152.5C153.1 28.3001 153.6 27.8001 153.6 27.2001C153.6 27.1001 153.6 27.1001 153.6 27.0001ZM160 30.1001V30.2001C160 31.4001 159 32.4001 157.8 32.4001H144.6C144.7 33.0001 144.8 33.5001 145.1 34.0001C145.4 34.5001 145.8 34.9001 146.3 35.3001C146.8 35.7001 147.3 35.9001 147.9 36.1001C148.5 36.3001 149.1 36.4001 149.7 36.4001C150.8 36.4001 151.7 36.2001 152.5 35.8001C152.8 35.6001 153.2 35.4001 153.6 35.0001C154.1 34.6001 154.8 34.5001 155.4 34.8001L159.3 37.2001C158.3 38.6001 157 39.8001 155.4 40.5001C153.8 41.3001 151.9 41.7001 149.7 41.7001C148.1 41.7001 146.6 41.5001 145.2 41.0001C143.8 40.5001 142.5 39.8001 141.5 38.8001C140.4 37.8001 139.6 36.7001 139 35.3001C138.4 33.9001 138.1 32.3001 138.1 30.5001C138.1 28.8001 138.4 27.2001 139 25.8001C139.6 24.4001 140.4 23.2001 141.4 22.2001C142.4 21.2001 143.6 20.5001 145 19.9001C146.4 19.4001 147.9 19.1001 149.5 19.1001C151.1 19.1001 152.5 19.4001 153.8 19.9001C155.1 20.4001 156.2 21.2001 157.2 22.2001C158.1 23.2001 158.9 24.4001 159.4 25.8001C159.8 27.4001 160 28.3001 160 30.1001Z" fill="white"/>
    </g>
    <defs>
        <linearGradient id="paint0_linear_48_812" x1="2.88914" y1="38.1554" x2="43.0688" y2="0.720845" gradientUnits="userSpaceOnUse">
            <stop stop-color="#00EAFF"/>
            <stop offset="0.2487" stop-color="#0080FF"/>
            <stop offset="0.5214" stop-color="#8000ff"/>
            <stop offset="0.7841" stop-color="#E619E6"/>
            <stop offset="1" stop-color="#E51A5D"/>
        </linearGradient>
        <linearGradient id="paint1_linear_48_812" x1="10.9698" y1="46.8293" x2="51.1495" y2="9.39482" gradientUnits="userSpaceOnUse">
            <stop stop-color="#00EAFF"/>
            <stop offset="0.2487" stop-color="#0080FF"/>
            <stop offset="0.5214" stop-color="#8000ff"/>
            <stop offset="0.7841" stop-color="#E619E6"/>
            <stop offset="1" stop-color="#E51A5D"/>
        </linearGradient>
        <linearGradient id="paint2_linear_48_812" x1="0.12737" y1="35.1904" x2="40.307" y2="-2.24409" gradientUnits="userSpaceOnUse">
            <stop stop-color="#00EAFF"/>
            <stop offset="0.2487" stop-color="#0080FF"/>
            <stop offset="0.5214" stop-color="#8000ff"/>
            <stop offset="0.7841" stop-color="#E619E6"/>
            <stop offset="1" stop-color="#E51A5D"/>
        </linearGradient>
        <linearGradient id="paint3_linear_48_812" x1="1.63308" y1="36.8072" x2="41.8127" y2="-0.627282" gradientUnits="userSpaceOnUse">
            <stop stop-color="#00EAFF"/>
            <stop offset="0.2487" stop-color="#0080FF"/>
            <stop offset="0.5214" stop-color="#8000ff"/>
            <stop offset="0.7841" stop-color="#E619E6"/>
            <stop offset="1" stop-color="#E51A5D"/>
        </linearGradient>
        <clipPath id="clip0_48_812">
            <rect width="249" height="51" fill="white"/>
        </clipPath>
    </defs>
</svg>
