<svg width="21" height="25" viewBox="0 0 21 25" fill="none" xmlns="http://www.w3.org/2000/svg">
    <path fill-rule="evenodd" clip-rule="evenodd" d="M21.2541 0.0697786L13.2834 0.0348893L5.35461 0C5.35461 2.07591 3.32533 3.76804 0.835801 3.76804C0.81488 3.76804 0.81488 3.76804 0.79396 3.76804L0.731199 12.2112C0.710278 17.4097 3.42993 20.2183 9.1412 23.1665V21.1778C7.55125 20.323 6.25419 19.4682 5.25001 18.5088C3.49269 16.8515 2.65588 14.9326 2.6768 12.2461L2.71864 5.11128H2.76048C4.87344 5.11128 6.58891 3.68082 6.58891 1.93635L13.3044 1.97124L20.0407 2.00613C20.0826 3.73315 21.7562 5.11128 23.8273 5.12872L23.7646 12.3508C23.7436 17.4621 20.5847 19.8171 13.9947 22.7478V24.6842C17.8022 22.992 20.6474 21.4744 22.5721 19.6776C24.6432 17.7412 25.6683 15.4734 25.6892 12.3334L25.7311 3.78549C23.2834 3.7506 21.3169 2.1108 21.2541 0.0697786Z" fill="url(#paint0_linear_12_66)"/>
    <path fill-rule="evenodd" clip-rule="evenodd" d="M12.9697 14.1476C12.3212 14.1476 11.0869 14.1999 9.91533 14.3918C9.70612 14.4267 9.53876 14.6012 9.53876 14.7756C9.55968 15.6304 9.64336 18.0901 9.66428 21.4744C9.66428 22.1024 9.66428 22.7653 9.66428 23.4456C10.7103 23.9689 13.3044 25.0505 13.3881 24.9982C13.409 24.3178 13.43 23.6026 13.4509 22.9746C13.5555 18.5088 13.4718 15.5083 13.43 14.4965C13.43 14.3046 13.2207 14.1302 12.9697 14.1476Z" fill="url(#paint1_linear_12_66)"/>
    <path fill-rule="evenodd" clip-rule="evenodd" d="M12.8023 4.58794C12.363 4.50071 11.0659 4.67516 10.5638 4.77983C10.0617 4.8845 9.72701 5.16361 9.64333 5.70439C9.58057 6.1754 9.60149 11.7053 9.60149 13.1184C10.2082 13.0486 10.8149 12.9963 11.4006 12.9439C12.0283 12.8916 12.6559 12.8567 13.2835 12.8218C13.2626 12.5776 13.1998 12.3682 13.0952 12.2985C12.9488 12.1938 12.9906 12.1066 13.3462 11.7402C13.681 11.3739 13.4508 10.8157 13.1161 10.5191C12.8023 10.2051 12.9488 10.083 13.2207 9.83877C13.4927 9.61199 13.4299 8.93165 13.158 8.63509C12.886 8.33853 13.0324 8.21642 13.2207 7.98964C13.409 7.76286 13.4508 7.22208 13.1789 6.80341C12.9069 6.38473 13.0743 6.34985 13.3881 5.77417C13.7019 5.23339 13.2416 4.69261 12.8023 4.58794Z" fill="url(#paint2_linear_12_66)"/>
    <path fill-rule="evenodd" clip-rule="evenodd" d="M17.8022 13.3103C18.911 12.281 19.2457 10.711 19.1202 9.12355C18.9737 7.48375 18.3252 5.82651 17.4675 4.7275C16.6307 3.64593 14.6641 3.47149 13.2416 3.64593C12.3211 3.76804 11.4424 4.01227 10.5428 4.18672C9.58048 4.37861 9.01563 4.30883 9.4968 5.26828C9.78969 4.69261 10.6265 4.53561 11.3587 4.43094C11.8817 4.36116 12.4257 4.29138 12.9068 4.43094C13.4089 4.5705 13.8273 4.98917 13.7227 5.40784C14.3713 5.30317 15.2918 5.1985 15.8984 5.42528C17.0909 5.87885 17.342 7.36164 17.4047 8.32109C17.4675 9.40266 17.3001 10.5715 16.8817 11.6007C16.7353 11.9321 16.5679 12.281 16.2541 12.5253C15.8566 12.8393 15.0826 12.9265 14.5386 12.9963C12.2374 13.2754 9.85245 13.1533 7.67673 13.7987C7.36292 13.8859 7.07004 13.9906 6.88175 14.2348C6.77715 14.3744 6.73531 14.5488 6.81899 14.7058C7.00727 15.0896 7.69765 15.0198 8.17882 14.8977C8.3671 14.8454 8.55538 14.7931 8.74367 14.7407C8.82735 14.7233 8.91103 14.6884 8.95287 14.6535C8.95287 14.6361 8.97379 14.6361 8.97379 14.6186C9.03655 14.5314 8.97379 14.4093 8.99471 14.3046C9.03655 14.0604 9.3922 13.9732 9.68509 13.9557C10.7729 13.8685 11.8608 13.7987 12.9277 13.7115C13.1579 13.694 13.388 13.6766 13.5972 13.7638C13.8064 13.851 13.9528 14.0604 13.8273 14.2348C15.2081 14.2348 16.9235 14.1476 17.8022 13.3103Z" fill="url(#paint3_linear_12_66)"/>
    <defs>
        <linearGradient id="paint0_linear_12_66" x1="2.44033" y1="18.8229" x2="22.1899" y2="-3.24349" gradientUnits="userSpaceOnUse">
            <stop stop-color="#00EAFF"/>
            <stop offset="0.2487" stop-color="#0080FF"/>
            <stop offset="0.5214" stop-color="#8000FF"/>
            <stop offset="0.7841" stop-color="#E619E6"/>
            <stop offset="1" stop-color="#E51A5D"/>
        </linearGradient>
        <linearGradient id="paint1_linear_12_66" x1="7.22143" y1="23.1019" x2="26.971" y2="1.03557" gradientUnits="userSpaceOnUse">
            <stop stop-color="#00EAFF"/>
            <stop offset="0.2487" stop-color="#0080FF"/>
            <stop offset="0.5214" stop-color="#8000FF"/>
            <stop offset="0.7841" stop-color="#E619E6"/>
            <stop offset="1" stop-color="#E51A5D"/>
        </linearGradient>
        <linearGradient id="paint2_linear_12_66" x1="0.806223" y1="17.3603" x2="20.5558" y2="-4.70607" gradientUnits="userSpaceOnUse">
            <stop stop-color="#00EAFF"/>
            <stop offset="0.2487" stop-color="#0080FF"/>
            <stop offset="0.5214" stop-color="#8000FF"/>
            <stop offset="0.7841" stop-color="#E619E6"/>
            <stop offset="1" stop-color="#E51A5D"/>
        </linearGradient>
        <linearGradient id="paint3_linear_12_66" x1="1.69738" y1="18.158" x2="21.4469" y2="-3.9084" gradientUnits="userSpaceOnUse">
            <stop stop-color="#00EAFF"/>
            <stop offset="0.2487" stop-color="#0080FF"/>
            <stop offset="0.5214" stop-color="#8000FF"/>
            <stop offset="0.7841" stop-color="#E619E6"/>
            <stop offset="1" stop-color="#E51A5D"/>
        </linearGradient>
    </defs>
</svg>
