<svg width="249" height="51" viewBox="0 0 249 51" fill="none" xmlns="http://www.w3.org/2000/svg">
    <path fill-rule="evenodd" clip-rule="evenodd" d="M34.6899 0.141446L21.2172 0.0707232L7.81511 0C7.81511 4.20803 4.38504 7.6381 0.17701 7.6381C0.141649 7.6381 0.141648 7.6381 0.106287 7.6381L0.000202428 24.7531C-0.0351592 35.2909 4.56185 40.9841 14.2156 46.9602V42.929C11.5281 41.1962 9.33566 39.4635 7.6383 37.5186C4.66793 34.1593 3.25347 30.2695 3.28883 24.8238L3.35955 10.3609H3.43027C7.00179 10.3609 9.90145 7.46129 9.90145 3.92514L21.2525 3.99586L32.6389 4.06658C32.7097 7.56738 35.5386 10.3609 39.0394 10.3963L38.9333 25.036C38.8979 35.3969 33.5583 40.1708 22.4194 46.1115V50.0366C28.8553 46.6066 33.6644 43.5301 36.9177 39.8879C40.4185 35.9627 42.1512 31.3657 42.1866 25.0006L42.2573 7.67346C38.12 7.60274 34.796 4.27875 34.6899 0.141446Z" fill="url(#paint0_linear_10_3)"/>
    <path fill-rule="evenodd" clip-rule="evenodd" d="M20.6863 28.6784C19.5901 28.6784 17.5037 28.7845 15.5235 29.1734C15.1699 29.2442 14.887 29.5978 14.887 29.9514C14.9223 31.6841 15.0638 36.6701 15.0991 43.5302C15.0991 44.8033 15.0991 46.147 15.0991 47.5261C16.8672 48.5869 21.252 50.7794 21.3935 50.6733C21.4289 49.2942 21.4642 47.8444 21.4996 46.5713C21.6764 37.5188 21.5349 31.4366 21.4642 29.3856C21.4642 28.9966 21.1106 28.643 20.6863 28.6784Z" fill="url(#paint1_linear_10_3)"/>
    <path fill-rule="evenodd" clip-rule="evenodd" d="M20.4043 9.2999C19.6617 9.12309 17.4692 9.47671 16.6206 9.68888C15.7719 9.90104 15.2061 10.4668 15.0647 11.563C14.9586 12.5178 14.9939 23.7274 14.9939 26.5917C16.0194 26.4503 17.0449 26.3442 18.035 26.2381C19.0959 26.132 20.1567 26.0613 21.2176 25.9906C21.1822 25.4955 21.0761 25.0712 20.8993 24.9297C20.6518 24.7175 20.7225 24.5407 21.3237 23.7981C21.8894 23.0556 21.5005 21.924 20.9347 21.3228C20.4043 20.6863 20.6518 20.4388 21.1115 19.9437C21.5712 19.484 21.4651 18.1049 21.0054 17.5038C20.5457 16.9026 20.7932 16.6551 21.1115 16.1954C21.4297 15.7357 21.5005 14.6395 21.0408 13.7908C20.5811 12.9421 20.864 12.8714 21.3944 11.7045C21.9248 10.6083 21.1469 9.51207 20.4043 9.2999Z" fill="url(#paint2_linear_10_3)"/>
    <path fill-rule="evenodd" clip-rule="evenodd" d="M28.8549 26.9808C30.7291 24.8944 31.2949 21.7119 31.0827 18.494C30.8352 15.17 29.739 11.8107 28.2891 9.58288C26.8747 7.39047 23.5507 7.03685 21.1461 7.39047C19.5902 7.638 18.105 8.13306 16.5845 8.48667C14.9578 8.87565 14.0031 8.73421 14.8164 10.6791C15.3114 9.51216 16.7259 9.19391 17.9636 8.98174C18.8476 8.84029 19.767 8.69884 20.5803 8.98174C21.429 9.26463 22.1362 10.1133 21.9594 10.962C23.0556 10.7498 24.6115 10.5376 25.637 10.9973C27.6526 11.9167 28.077 14.9225 28.183 16.8674C28.2891 19.0598 28.0062 21.429 27.299 23.5153C27.0515 24.1872 26.7686 24.8944 26.2382 25.3895C25.5663 26.026 24.2579 26.2028 23.3385 26.3443C19.4487 26.9101 15.4175 26.6625 11.7399 27.9709C11.2095 28.1477 10.7144 28.3599 10.3962 28.8549C10.2194 29.1378 10.1486 29.4915 10.2901 29.8097C10.6083 30.5877 11.7753 30.4462 12.5886 30.1987C12.9068 30.0926 13.2251 29.9865 13.5434 29.8804C13.6848 29.8451 13.8262 29.7743 13.897 29.7036C13.897 29.6683 13.9323 29.6683 13.9323 29.6329C14.0384 29.4561 13.9323 29.2086 13.9677 28.9964C14.0384 28.5013 14.6396 28.3245 15.1346 28.2892C16.9734 28.1124 18.8122 27.9709 20.6157 27.7941C21.0046 27.7587 21.3936 27.7234 21.7472 27.9002C22.1009 28.077 22.3484 28.5013 22.1362 28.8549C24.4701 28.8549 27.3697 28.6781 28.8549 26.9808Z" fill="url(#paint3_linear_10_3)"/>
    <path d="M184.4 42H182.2L177.3 24.2L172.4 42H170.2L164.5 19.8H167L171.3 37.7L176.2 19.8H178.3L183.2 37.7L187.5 19.8H190L184.4 42Z" fill="black"/>
    <path d="M200.801 41.9998V40.4998C200.201 41.0998 199.501 41.5998 198.901 41.7998C198.201 41.9998 197.401 42.1998 196.401 42.1998C195.301 42.1998 194.501 42.0998 193.801 41.8998C193.101 41.6998 192.501 41.2998 192.101 40.7998C191.701 40.3998 191.401 39.9998 191.201 39.3998C191.001 38.8998 190.901 38.2998 190.901 37.6998C190.901 36.3998 191.401 35.2998 192.301 34.4998C193.201 33.6998 194.501 33.2998 196.201 33.2998H200.801V31.7998C200.801 30.6998 200.501 29.7998 199.901 29.2998C199.301 28.6998 198.301 28.4998 196.901 28.4998C195.901 28.4998 195.101 28.5998 194.601 28.8998C194.101 29.1998 193.501 29.5998 193.101 30.2998L191.601 28.8998C192.301 27.9998 193.001 27.3998 193.901 27.0998C194.701 26.7998 195.801 26.5998 197.001 26.5998C199.101 26.5998 200.601 26.9998 201.601 27.8998C202.601 28.7998 203.101 29.9998 203.101 31.6998V42.0998H200.801V41.9998ZM200.801 34.8998H196.501C194.201 34.8998 193.101 35.7998 193.101 37.5998C193.101 38.4998 193.401 39.1998 193.901 39.5998C194.401 39.9998 195.401 40.1998 196.601 40.1998C197.301 40.1998 197.901 40.0998 198.501 39.9998C199.101 39.8998 199.601 39.5998 200.101 39.0998C200.601 38.5998 200.901 37.6998 200.901 36.4998V34.8998H200.801Z" fill="black"/>
    <path d="M212.4 42C211 42 210.1 41.6 209.4 40.8C208.8 40 208.5 39 208.5 37.9V19.8H210.7V37.8C210.7 38.5 210.8 39.1 211.1 39.5C211.4 39.9 211.9 40.1 212.7 40.1H213.9V42H212.4Z" fill="black"/>
    <path d="M221.6 42C220.2 42 219.3 41.6 218.6 40.8C218 40 217.7 39 217.7 37.9V19.8H219.9V37.8C219.9 38.5 220 39.1 220.3 39.5C220.6 39.9 221.1 40.1 221.9 40.1H223.1V42H221.6Z" fill="black"/>
    <path d="M227.701 34.9002C227.701 36.6002 228.101 37.9002 228.901 38.8002C229.701 39.7002 230.801 40.2002 232.301 40.2002C233.201 40.2002 233.901 40.1002 234.501 39.8002C235.101 39.5002 235.701 39.1002 236.301 38.5002L237.801 39.8002C237.401 40.2002 237.001 40.5002 236.601 40.8002C236.201 41.1002 235.801 41.3002 235.401 41.5002C235.001 41.7002 234.501 41.9002 234.001 42.0002C233.501 42.1002 232.901 42.2002 232.201 42.2002C231.201 42.2002 230.301 42.0002 229.401 41.7002C228.501 41.4002 227.901 40.9002 227.301 40.3002C226.701 39.7002 226.301 38.8002 225.901 37.9002C225.601 36.9002 225.401 35.7002 225.401 34.4002C225.401 31.9002 226.001 30.0002 227.101 28.6002C228.201 27.2002 229.801 26.5002 231.701 26.5002C233.701 26.5002 235.201 27.2002 236.301 28.5002C237.401 29.8002 238.001 31.6002 238.001 33.9002V34.9002H227.701ZM235.701 32.4002C235.701 32.2002 235.701 32.0002 235.601 31.8002C235.601 31.6002 235.501 31.4002 235.501 31.3002C235.501 31.2002 235.401 30.9002 235.301 30.7002C235.001 30.0002 234.501 29.4002 233.901 29.0002C233.301 28.6002 232.501 28.4002 231.701 28.4002C230.901 28.4002 230.201 28.6002 229.501 29.0002C228.901 29.4002 228.401 30.0002 228.101 30.7002C227.901 31.1002 227.801 31.5002 227.801 31.8002C227.701 32.1002 227.701 32.6002 227.701 33.2002H235.801C235.801 32.9002 235.701 32.7002 235.701 32.4002Z" fill="black"/>
    <path d="M247.101 42.0002C246.401 42.0002 245.901 41.9002 245.401 41.7002C244.901 41.5002 244.501 41.2002 244.201 40.8002C243.901 40.4002 243.601 40.0002 243.501 39.5002C243.301 39.0002 243.301 38.5002 243.301 37.9002V28.5002H241.401V26.8002H243.301V22.0002H245.501V26.8002H248.801V28.5002H245.501V37.8002C245.501 38.5002 245.701 39.1002 246.001 39.5002C246.301 39.9002 246.901 40.1002 247.601 40.1002H248.801V42.0002H247.101Z" fill="black"/>
    <path d="M81.8001 20.3C81.8001 22.1 81.5001 23.5 80.8001 24.7C80.1001 25.9 79.3001 26.9 78.2001 27.6C77.1001 28.3 75.8001 28.9 74.4001 29.2C73.0001 29.5 71.5001 29.7 69.9001 29.7H68.5001C67.3001 29.7 66.3001 30.7 66.3001 31.9V39.6C66.3001 40.4 65.6001 41.1 64.8001 41.1H59.0001V13.2C59.0001 12 60.0001 11 61.2001 11H70.1001C71.7001 11 73.3001 11.2 74.7001 11.5C76.1001 11.8 77.4001 12.4 78.4001 13.1C79.5001 13.8 80.3001 14.8 80.9001 16C81.5001 17.1 81.8001 18.6 81.8001 20.3ZM74.6001 20.4C74.6001 19.7 74.5001 19.1 74.2001 18.7C73.9001 18.2 73.5001 17.9 73.0001 17.6C72.5001 17.3 72.0001 17.2 71.4001 17.1C70.8001 17 70.2001 17 69.5001 17H67.8001C67.0001 17 66.3001 17.7 66.3001 18.5V24.1H69.4001C70.1001 24.1 70.7001 24 71.4001 23.9C72.0001 23.8 72.6001 23.6 73.1001 23.3C73.6001 23 74.0001 22.6 74.3001 22.2C74.5001 21.6 74.6001 21.1 74.6001 20.4Z" fill="black"/>
    <path d="M98.3001 41.2V38.3H98.2001C97.9001 38.8 97.6001 39.2 97.2001 39.7C96.8001 40.2 96.3001 40.5 95.8001 40.8C95.2001 41.1 94.6001 41.4 94.0001 41.6C93.3001 41.8 92.6001 41.9 91.9001 41.9C90.5001 41.9 89.3001 41.6 88.3001 41.1C87.3001 40.6 86.5001 39.9 85.9001 39.1C85.3001 38.3 84.9001 37.4 84.6001 36.3C84.3001 35.3 84.2001 34.2 84.2001 33.1V22.2C84.2001 21 85.2001 20 86.4001 20H91.2001V31.5C91.2001 32.1 91.2001 32.7 91.3001 33.2C91.4001 33.7 91.5001 34.2 91.8001 34.6C92.0001 35 92.4001 35.4 92.8001 35.6C93.2001 35.8 93.7001 36 94.4001 36C95.6001 36 96.5001 35.5 97.2001 34.6C97.8001 33.7 98.2001 32.6 98.2001 31.4V22.1C98.2001 20.9 99.2001 19.9 100.4 19.9H105V38.9C105 40.1 104 41.1 102.8 41.1H98.3001V41.2Z" fill="black"/>
    <path d="M108.401 41.2V11.2C108.401 10 109.401 9 110.601 9H115.501V39C115.501 40.2 114.501 41.2 113.301 41.2H108.401Z" fill="black"/>
    <path d="M131.1 25.2C130.9 25.1 130.7 25 130.5 24.9C129.7 24.5 128.9 24.3 128.1 24.3C127.4 24.3 126.8 24.4 126.3 24.7C125.8 25 125.5 25.4 125.5 26C125.5 26.6 125.8 27 126.4 27.3C127 27.6 128 27.8 129.4 28.2C130.2 28.4 131 28.6 131.8 28.9C132.6 29.2 133.3 29.6 134 30.1C134.7 30.6 135.2 31.2 135.6 32C136 32.7 136.2 33.6 136.2 34.6C136.2 35.9 135.9 37.1 135.4 38C134.9 38.9 134.2 39.7 133.3 40.2C132.4 40.8 131.5 41.2 130.4 41.4C129.3 41.7 128.2 41.8 127.2 41.8C125.5 41.8 123.8 41.5 122.1 41C120.4 40.4 119.1 39.6 118 38.6L120.5 35.9C121.2 35.1 122.5 35 123.4 35.6C123.7 35.8 124 36 124.2 36.1C125.1 36.6 126.1 36.8 127.1 36.8C127.7 36.8 128.2 36.7 128.8 36.4C129.4 36.1 129.6 35.7 129.6 35C129.6 34.3 129.3 33.9 128.6 33.6C127.9 33.3 126.9 33 125.4 32.6C124.7 32.4 123.9 32.2 123.2 31.9C122.5 31.6 121.8 31.2 121.2 30.8C120.6 30.3 120.1 29.7 119.8 29C119.4 28.3 119.2 27.4 119.2 26.4C119.2 25.1 119.5 24 120 23.1C120.5 22.2 121.2 21.5 122.1 20.9C123 20.3 123.9 19.9 124.9 19.6C125.9 19.3 127 19.2 128 19.2C129.6 19.2 131.1 19.4 132.7 19.9C134.2 20.4 135.5 21.1 136.5 22.1L134 24.7C133.1 25.6 131.9 25.7 131.1 25.2Z" fill="black"/>
    <path d="M153.6 27.0001C153.6 26.8001 153.5 26.7001 153.5 26.7001C153.3 26.2001 153 25.8001 152.7 25.5001C151.9 24.7001 151 24.3001 149.6 24.3001C148.9 24.3001 148.3 24.4001 147.7 24.6001C147.1 24.8001 146.6 25.1001 146.2 25.5001C145.8 25.9001 145.4 26.3001 145.2 26.8001C144.9 27.3001 144.8 27.8001 144.8 28.3001H152.5C153.1 28.3001 153.6 27.8001 153.6 27.2001C153.6 27.1001 153.6 27.1001 153.6 27.0001ZM160 30.1001V30.2001C160 31.4001 159 32.4001 157.8 32.4001H144.6C144.7 33.0001 144.8 33.5001 145.1 34.0001C145.4 34.5001 145.8 34.9001 146.3 35.3001C146.8 35.7001 147.3 35.9001 147.9 36.1001C148.5 36.3001 149.1 36.4001 149.7 36.4001C150.8 36.4001 151.7 36.2001 152.5 35.8001C152.8 35.6001 153.2 35.4001 153.6 35.0001C154.1 34.6001 154.8 34.5001 155.4 34.8001L159.3 37.2001C158.3 38.6001 157 39.8001 155.4 40.5001C153.8 41.3001 151.9 41.7001 149.7 41.7001C148.1 41.7001 146.6 41.5001 145.2 41.0001C143.8 40.5001 142.5 39.8001 141.5 38.8001C140.4 37.8001 139.6 36.7001 139 35.3001C138.4 33.9001 138.1 32.3001 138.1 30.5001C138.1 28.8001 138.4 27.2001 139 25.8001C139.6 24.4001 140.4 23.2001 141.4 22.2001C142.4 21.2001 143.6 20.5001 145 19.9001C146.4 19.4001 147.9 19.1001 149.5 19.1001C151.1 19.1001 152.5 19.4001 153.8 19.9001C155.1 20.4001 156.2 21.2001 157.2 22.2001C158.1 23.2001 158.9 24.4001 159.4 25.8001C159.8 27.4001 160 28.3001 160 30.1001Z" fill="black"/>
    <defs>
        <linearGradient id="paint0_linear_10_3" x1="2.88914" y1="38.1554" x2="43.0688" y2="0.720845" gradientUnits="userSpaceOnUse">
            <stop stop-color="#00EAFF"/>
            <stop offset="0.2487" stop-color="#0080FF"/>
            <stop offset="0.5214" stop-color="#8000FF"/>
            <stop offset="0.7841" stop-color="#E619E6"/>
            <stop offset="1" stop-color="#E51A5D"/>
        </linearGradient>
        <linearGradient id="paint1_linear_10_3" x1="10.97" y1="46.8294" x2="51.1497" y2="9.39497" gradientUnits="userSpaceOnUse">
            <stop stop-color="#00EAFF"/>
            <stop offset="0.2487" stop-color="#0080FF"/>
            <stop offset="0.5214" stop-color="#8000FF"/>
            <stop offset="0.7841" stop-color="#E619E6"/>
            <stop offset="1" stop-color="#E51A5D"/>
        </linearGradient>
        <linearGradient id="paint2_linear_10_3" x1="0.12737" y1="35.1904" x2="40.307" y2="-2.24409" gradientUnits="userSpaceOnUse">
            <stop stop-color="#00EAFF"/>
            <stop offset="0.2487" stop-color="#0080FF"/>
            <stop offset="0.5214" stop-color="#8000FF"/>
            <stop offset="0.7841" stop-color="#E619E6"/>
            <stop offset="1" stop-color="#E51A5D"/>
        </linearGradient>
        <linearGradient id="paint3_linear_10_3" x1="1.63308" y1="36.8074" x2="41.8127" y2="-0.627069" gradientUnits="userSpaceOnUse">
            <stop stop-color="#00EAFF"/>
            <stop offset="0.2487" stop-color="#0080FF"/>
            <stop offset="0.5214" stop-color="#8000FF"/>
            <stop offset="0.7841" stop-color="#E619E6"/>
            <stop offset="1" stop-color="#E51A5D"/>
        </linearGradient>
    </defs>
</svg>
