<svg width="400" height="105" viewBox="0 0 400 105" fill="none" xmlns="http://www.w3.org/2000/svg">
    <g clip-path="url(#clip0_4_56)">
        <path d="M400 0H0V105H400V0Z" fill="url(#paint0_linear_4_56)"/>
        <path d="M240.4 69H238.2L233.3 51.2L228.4 69H226.2L220.5 46.8H223L227.3 64.7L232.2 46.8H234.3L239.2 64.7L243.5 46.8H246L240.4 69Z" fill="white"/>
        <path d="M256.801 68.9998V67.4998C256.201 68.0998 255.501 68.5998 254.901 68.7998C254.201 68.9998 253.401 69.1998 252.401 69.1998C251.301 69.1998 250.501 69.0998 249.801 68.8998C249.101 68.6998 248.501 68.2998 248.101 67.7998C247.701 67.3998 247.401 66.9998 247.201 66.3998C247.001 65.8998 246.901 65.2998 246.901 64.6998C246.901 63.3998 247.401 62.2998 248.301 61.4998C249.201 60.6998 250.501 60.2998 252.201 60.2998H256.801V58.7998C256.801 57.6998 256.501 56.7998 255.901 56.2998C255.301 55.6998 254.301 55.4998 252.901 55.4998C251.901 55.4998 251.101 55.5998 250.601 55.8998C250.101 56.1998 249.501 56.5998 249.101 57.2998L247.601 55.8998C248.301 54.9998 249.001 54.3998 249.901 54.0998C250.701 53.7998 251.801 53.5998 253.001 53.5998C255.101 53.5998 256.601 53.9998 257.601 54.8998C258.601 55.7998 259.101 56.9998 259.101 58.6998V69.0998H256.801V68.9998ZM256.801 61.8998H252.501C250.201 61.8998 249.101 62.7998 249.101 64.5998C249.101 65.4998 249.401 66.1998 249.901 66.5998C250.401 66.9998 251.401 67.1998 252.601 67.1998C253.301 67.1998 253.901 67.0998 254.501 66.9998C255.101 66.8998 255.601 66.5998 256.101 66.0998C256.601 65.5998 256.901 64.6998 256.901 63.4998V61.8998H256.801Z" fill="white"/>
        <path d="M268.4 69C267 69 266.1 68.6 265.4 67.8C264.8 67 264.5 66 264.5 64.9V46.8H266.7V64.8C266.7 65.5 266.8 66.1 267.1 66.5C267.4 66.9 267.9 67.1 268.7 67.1H269.9V69H268.4Z" fill="white"/>
        <path d="M277.6 69C276.2 69 275.3 68.6 274.6 67.8C274 67 273.7 66 273.7 64.9V46.8H275.9V64.8C275.9 65.5 276 66.1 276.3 66.5C276.6 66.9 277.1 67.1 277.9 67.1H279.1V69H277.6Z" fill="white"/>
        <path d="M283.701 61.9002C283.701 63.6002 284.101 64.9002 284.901 65.8002C285.701 66.7002 286.801 67.2002 288.301 67.2002C289.201 67.2002 289.901 67.1002 290.501 66.8002C291.101 66.5002 291.701 66.1002 292.301 65.5002L293.801 66.8002C293.401 67.2002 293.001 67.5002 292.601 67.8002C292.201 68.1002 291.801 68.3002 291.401 68.5002C291.001 68.7002 290.501 68.9002 290.001 69.0002C289.501 69.1002 288.901 69.2002 288.201 69.2002C287.201 69.2002 286.301 69.0002 285.401 68.7002C284.501 68.4002 283.901 67.9002 283.301 67.3002C282.701 66.7002 282.301 65.8002 281.901 64.9002C281.601 63.9002 281.401 62.7002 281.401 61.4002C281.401 58.9002 282.001 57.0002 283.101 55.6002C284.201 54.2002 285.801 53.5002 287.701 53.5002C289.701 53.5002 291.201 54.2002 292.301 55.5002C293.401 56.8002 294.001 58.6002 294.001 60.9002V61.9002H283.701ZM291.701 59.4002C291.701 59.2002 291.701 59.0002 291.601 58.8002C291.601 58.6002 291.501 58.4002 291.501 58.3002C291.501 58.2002 291.401 57.9002 291.301 57.7002C291.001 57.0002 290.501 56.4002 289.901 56.0002C289.301 55.6002 288.501 55.4002 287.701 55.4002C286.901 55.4002 286.201 55.6002 285.501 56.0002C284.901 56.4002 284.401 57.0002 284.101 57.7002C283.901 58.1002 283.801 58.5002 283.801 58.8002C283.701 59.1002 283.701 59.6002 283.701 60.2002H291.801C291.801 59.9002 291.701 59.7002 291.701 59.4002Z" fill="white"/>
        <path d="M303.101 69.0002C302.401 69.0002 301.901 68.9002 301.401 68.7002C300.901 68.5002 300.501 68.2002 300.201 67.8002C299.901 67.4002 299.601 67.0002 299.501 66.5002C299.301 66.0002 299.301 65.5002 299.301 64.9002V55.5002H297.401V53.8002H299.301V49.0002H301.501V53.8002H304.801V55.5002H301.501V64.8002C301.501 65.5002 301.701 66.1002 302.001 66.5002C302.301 66.9002 302.901 67.1002 303.601 67.1002H304.801V69.0002H303.101Z" fill="white"/>
        <path d="M137.8 47.3C137.8 49.1 137.5 50.5 136.8 51.7C136.1 52.9 135.3 53.9 134.2 54.6C133.1 55.3 131.8 55.9 130.4 56.2C129 56.5 127.5 56.7 125.9 56.7H124.5C123.3 56.7 122.3 57.7 122.3 58.9V66.6C122.3 67.4 121.6 68.1 120.8 68.1H115V40.2C115 39 116 38 117.2 38H126.1C127.7 38 129.3 38.2 130.7 38.5C132.1 38.8 133.4 39.4 134.4 40.1C135.5 40.8 136.3 41.8 136.9 43C137.5 44.1 137.8 45.6 137.8 47.3ZM130.6 47.4C130.6 46.7 130.5 46.1 130.2 45.7C129.9 45.2 129.5 44.9 129 44.6C128.5 44.3 128 44.2 127.4 44.1C126.8 44 126.2 44 125.5 44H123.8C123 44 122.3 44.7 122.3 45.5V51.1H125.4C126.1 51.1 126.7 51 127.4 50.9C128 50.8 128.6 50.6 129.1 50.3C129.6 50 130 49.6 130.3 49.2C130.5 48.6 130.6 48.1 130.6 47.4Z" fill="white"/>
        <path d="M154.3 68.2V65.3H154.2C153.9 65.8 153.6 66.2 153.2 66.7C152.8 67.2 152.3 67.5 151.8 67.8C151.2 68.1 150.6 68.4 150 68.6C149.3 68.8 148.6 68.9 147.9 68.9C146.5 68.9 145.3 68.6 144.3 68.1C143.3 67.6 142.5 66.9 141.9 66.1C141.3 65.3 140.9 64.4 140.6 63.3C140.3 62.3 140.2 61.2 140.2 60.1V49.2C140.2 48 141.2 47 142.4 47H147.2V58.5C147.2 59.1 147.2 59.7 147.3 60.2C147.4 60.7 147.5 61.2 147.8 61.6C148 62 148.4 62.4 148.8 62.6C149.2 62.8 149.7 63 150.4 63C151.6 63 152.5 62.5 153.2 61.6C153.8 60.7 154.2 59.6 154.2 58.4V49.1C154.2 47.9 155.2 46.9 156.4 46.9H161V65.9C161 67.1 160 68.1 158.8 68.1H154.3V68.2Z" fill="white"/>
        <path d="M164.401 68.2V38.2C164.401 37 165.401 36 166.601 36H171.501V66C171.501 67.2 170.501 68.2 169.301 68.2H164.401Z" fill="white"/>
        <path d="M187.1 52.2C186.9 52.1 186.7 52 186.5 51.9C185.7 51.5 184.9 51.3 184.1 51.3C183.4 51.3 182.8 51.4 182.3 51.7C181.8 52 181.5 52.4 181.5 53C181.5 53.6 181.8 54 182.4 54.3C183 54.6 184 54.8 185.4 55.2C186.2 55.4 187 55.6 187.8 55.9C188.6 56.2 189.3 56.6 190 57.1C190.7 57.6 191.2 58.2 191.6 59C192 59.7 192.2 60.6 192.2 61.6C192.2 62.9 191.9 64.1 191.4 65C190.9 65.9 190.2 66.7 189.3 67.2C188.4 67.8 187.5 68.2 186.4 68.4C185.3 68.7 184.2 68.8 183.2 68.8C181.5 68.8 179.8 68.5 178.1 68C176.4 67.4 175.1 66.6 174 65.6L176.5 62.9C177.2 62.1 178.5 62 179.4 62.6C179.7 62.8 180 63 180.2 63.1C181.1 63.6 182.1 63.8 183.1 63.8C183.7 63.8 184.2 63.7 184.8 63.4C185.4 63.1 185.6 62.7 185.6 62C185.6 61.3 185.3 60.9 184.6 60.6C183.9 60.3 182.9 60 181.4 59.6C180.7 59.4 179.9 59.2 179.2 58.9C178.5 58.6 177.8 58.2 177.2 57.8C176.6 57.3 176.1 56.7 175.8 56C175.4 55.3 175.2 54.4 175.2 53.4C175.2 52.1 175.5 51 176 50.1C176.5 49.2 177.2 48.5 178.1 47.9C179 47.3 179.9 46.9 180.9 46.6C181.9 46.3 183 46.2 184 46.2C185.6 46.2 187.1 46.4 188.7 46.9C190.2 47.4 191.5 48.1 192.5 49.1L190 51.7C189.1 52.6 187.9 52.7 187.1 52.2Z" fill="white"/>
        <path d="M209.6 54.0001C209.6 53.8001 209.5 53.7001 209.5 53.7001C209.3 53.2001 209 52.8001 208.7 52.5001C207.9 51.7001 207 51.3001 205.6 51.3001C204.9 51.3001 204.3 51.4001 203.7 51.6001C203.1 51.8001 202.6 52.1001 202.2 52.5001C201.8 52.9001 201.4 53.3001 201.2 53.8001C200.9 54.3001 200.8 54.8001 200.8 55.3001H208.5C209.1 55.3001 209.6 54.8001 209.6 54.2001C209.6 54.1001 209.6 54.1001 209.6 54.0001ZM216 57.1001V57.2001C216 58.4001 215 59.4001 213.8 59.4001H200.6C200.7 60.0001 200.8 60.5001 201.1 61.0001C201.4 61.5001 201.8 61.9001 202.3 62.3001C202.8 62.7001 203.3 62.9001 203.9 63.1001C204.5 63.3001 205.1 63.4001 205.7 63.4001C206.8 63.4001 207.7 63.2001 208.5 62.8001C208.8 62.6001 209.2 62.4001 209.6 62.0001C210.1 61.6001 210.8 61.5001 211.4 61.8001L215.3 64.2001C214.3 65.6001 213 66.8001 211.4 67.5001C209.8 68.3001 207.9 68.7001 205.7 68.7001C204.1 68.7001 202.6 68.5001 201.2 68.0001C199.8 67.5001 198.5 66.8001 197.5 65.8001C196.4 64.8001 195.6 63.7001 195 62.3001C194.4 60.9001 194.1 59.3001 194.1 57.5001C194.1 55.8001 194.4 54.2001 195 52.8001C195.6 51.4001 196.4 50.2001 197.4 49.2001C198.4 48.2001 199.6 47.5001 201 46.9001C202.4 46.4001 203.9 46.1001 205.5 46.1001C207.1 46.1001 208.5 46.4001 209.8 46.9001C211.1 47.4001 212.2 48.2001 213.2 49.2001C214.1 50.2001 214.9 51.4001 215.4 52.8001C215.8 54.4001 216 55.3001 216 57.1001Z" fill="white"/>
        <path fill-rule="evenodd" clip-rule="evenodd" d="M120.191 38.3848L120.193 38.3854C120.561 38.2399 120.502 37.6942 120.4 37.2656C120.168 36.2807 116.158 32.3075 112.392 30.528C107.262 28.1033 103.484 28.228 102.925 29.3454C103.97 31.4949 108.816 33.5129 113.876 35.6206C116.035 36.5198 118.234 37.4353 120.193 38.3843L120.191 38.3848Z" fill="url(#paint1_linear_4_56)"/>
        <path opacity="0.1" d="M34.5 11C36.433 11 38 9.433 38 7.5C38 5.567 36.433 4 34.5 4C32.567 4 31 5.567 31 7.5C31 9.433 32.567 11 34.5 11Z" fill="white" fill-opacity="0.3"/>
        <path opacity="0.4" d="M34.5 41C36.433 41 38 39.433 38 37.5C38 35.567 36.433 34 34.5 34C32.567 34 31 35.567 31 37.5C31 39.433 32.567 41 34.5 41Z" fill="white" fill-opacity="0.3"/>
        <path opacity="0.9" d="M34.5 101C36.433 101 38 99.433 38 97.5C38 95.567 36.433 94 34.5 94C32.567 94 31 95.567 31 97.5C31 99.433 32.567 101 34.5 101Z" fill="white" fill-opacity="0.3"/>
        <path opacity="0.1" d="M64.5 11C66.433 11 68 9.433 68 7.5C68 5.567 66.433 4 64.5 4C62.567 4 61 5.567 61 7.5C61 9.433 62.567 11 64.5 11Z" fill="white" fill-opacity="0.3"/>
        <path opacity="0.4" d="M64.5 41C66.433 41 68 39.433 68 37.5C68 35.567 66.433 34 64.5 34C62.567 34 61 35.567 61 37.5C61 39.433 62.567 41 64.5 41Z" fill="white" fill-opacity="0.3"/>
        <path opacity="0.9" d="M64.5 71C66.433 71 68 69.433 68 67.5C68 65.567 66.433 64 64.5 64C62.567 64 61 65.567 61 67.5C61 69.433 62.567 71 64.5 71Z" fill="white" fill-opacity="0.3"/>
        <path opacity="0.1" d="M94.5 11C96.433 11 98 9.433 98 7.5C98 5.567 96.433 4 94.5 4C92.567 4 91 5.567 91 7.5C91 9.433 92.567 11 94.5 11Z" fill="white" fill-opacity="0.3"/>
        <path opacity="0.4" d="M94.5 41C96.433 41 98 39.433 98 37.5C98 35.567 96.433 34 94.5 34C92.567 34 91 35.567 91 37.5C91 39.433 92.567 41 94.5 41Z" fill="white" fill-opacity="0.3"/>
        <path opacity="0.5" d="M94.5 71C96.433 71 98 69.433 98 67.5C98 65.567 96.433 64 94.5 64C92.567 64 91 65.567 91 67.5C91 69.433 92.567 71 94.5 71Z" fill="white" fill-opacity="0.3"/>
        <path opacity="0.5" d="M94.5 101C96.433 101 98 99.433 98 97.5C98 95.567 96.433 94 94.5 94C92.567 94 91 95.567 91 97.5C91 99.433 92.567 101 94.5 101Z" fill="white" fill-opacity="0.3"/>
        <path opacity="0.4" d="M124.5 41C126.433 41 128 39.433 128 37.5C128 35.567 126.433 34 124.5 34C122.567 34 121 35.567 121 37.5C121 39.433 122.567 41 124.5 41Z" fill="white" fill-opacity="0.3"/>
        <path opacity="0.5" d="M124.5 71C126.433 71 128 69.433 128 67.5C128 65.567 126.433 64 124.5 64C122.567 64 121 65.567 121 67.5C121 69.433 122.567 71 124.5 71Z" fill="white" fill-opacity="0.3"/>
        <path opacity="0.5" d="M124.5 101C126.433 101 128 99.433 128 97.5C128 95.567 126.433 94 124.5 94C122.567 94 121 95.567 121 97.5C121 99.433 122.567 101 124.5 101Z" fill="white" fill-opacity="0.3"/>
        <path opacity="0.2" d="M154.5 11C156.433 11 158 9.433 158 7.5C158 5.567 156.433 4 154.5 4C152.567 4 151 5.567 151 7.5C151 9.433 152.567 11 154.5 11Z" fill="white" fill-opacity="0.3"/>
        <path opacity="0.2" d="M154.5 41C156.433 41 158 39.433 158 37.5C158 35.567 156.433 34 154.5 34C152.567 34 151 35.567 151 37.5C151 39.433 152.567 41 154.5 41Z" fill="white" fill-opacity="0.3"/>
        <path opacity="0.4" d="M154.5 71C156.433 71 158 69.433 158 67.5C158 65.567 156.433 64 154.5 64C152.567 64 151 65.567 151 67.5C151 69.433 152.567 71 154.5 71Z" fill="white" fill-opacity="0.3"/>
        <path opacity="0.2" d="M184.5 11C186.433 11 188 9.433 188 7.5C188 5.567 186.433 4 184.5 4C182.567 4 181 5.567 181 7.5C181 9.433 182.567 11 184.5 11Z" fill="white" fill-opacity="0.3"/>
        <path opacity="0.2" d="M184.5 41C186.433 41 188 39.433 188 37.5C188 35.567 186.433 34 184.5 34C182.567 34 181 35.567 181 37.5C181 39.433 182.567 41 184.5 41Z" fill="white" fill-opacity="0.3"/>
        <path opacity="0.4" d="M184.5 71C186.433 71 188 69.433 188 67.5C188 65.567 186.433 64 184.5 64C182.567 64 181 65.567 181 67.5C181 69.433 182.567 71 184.5 71Z" fill="white" fill-opacity="0.3"/>
        <path opacity="0.4" d="M184.5 101C186.433 101 188 99.433 188 97.5C188 95.567 186.433 94 184.5 94C182.567 94 181 95.567 181 97.5C181 99.433 182.567 101 184.5 101Z" fill="white" fill-opacity="0.3"/>
        <path opacity="0.2" d="M214.5 11C216.433 11 218 9.433 218 7.5C218 5.567 216.433 4 214.5 4C212.567 4 211 5.567 211 7.5C211 9.433 212.567 11 214.5 11Z" fill="white" fill-opacity="0.3"/>
        <path opacity="0.2" d="M214.5 41C216.433 41 218 39.433 218 37.5C218 35.567 216.433 34 214.5 34C212.567 34 211 35.567 211 37.5C211 39.433 212.567 41 214.5 41Z" fill="white" fill-opacity="0.3"/>
        <path opacity="0.4" d="M214.5 101C216.433 101 218 99.433 218 97.5C218 95.567 216.433 94 214.5 94C212.567 94 211 95.567 211 97.5C211 99.433 212.567 101 214.5 101Z" fill="white" fill-opacity="0.3"/>
        <path opacity="0.2" d="M244.5 11C246.433 11 248 9.433 248 7.5C248 5.567 246.433 4 244.5 4C242.567 4 241 5.567 241 7.5C241 9.433 242.567 11 244.5 11Z" fill="white" fill-opacity="0.3"/>
        <path opacity="0.2" d="M244.5 41C246.433 41 248 39.433 248 37.5C248 35.567 246.433 34 244.5 34C242.567 34 241 35.567 241 37.5C241 39.433 242.567 41 244.5 41Z" fill="white" fill-opacity="0.3"/>
        <path opacity="0.8" d="M244.5 71C246.433 71 248 69.433 248 67.5C248 65.567 246.433 64 244.5 64C242.567 64 241 65.567 241 67.5C241 69.433 242.567 71 244.5 71Z" fill="white" fill-opacity="0.3"/>
        <path opacity="0.2" d="M274.5 11C276.433 11 278 9.433 278 7.5C278 5.567 276.433 4 274.5 4C272.567 4 271 5.567 271 7.5C271 9.433 272.567 11 274.5 11Z" fill="white" fill-opacity="0.3"/>
        <path opacity="0.2" d="M274.5 41C276.433 41 278 39.433 278 37.5C278 35.567 276.433 34 274.5 34C272.567 34 271 35.567 271 37.5C271 39.433 272.567 41 274.5 41Z" fill="white" fill-opacity="0.3"/>
        <path opacity="0.8" d="M274.5 71C276.433 71 278 69.433 278 67.5C278 65.567 276.433 64 274.5 64C272.567 64 271 65.567 271 67.5C271 69.433 272.567 71 274.5 71Z" fill="white" fill-opacity="0.3"/>
        <path opacity="0.5" d="M304.5 11C306.433 11 308 9.433 308 7.5C308 5.567 306.433 4 304.5 4C302.567 4 301 5.567 301 7.5C301 9.433 302.567 11 304.5 11Z" fill="white" fill-opacity="0.3"/>
        <path opacity="0.5" d="M304.5 41C306.433 41 308 39.433 308 37.5C308 35.567 306.433 34 304.5 34C302.567 34 301 35.567 301 37.5C301 39.433 302.567 41 304.5 41Z" fill="white" fill-opacity="0.3"/>
        <path opacity="0.5" d="M304.5 71C306.433 71 308 69.433 308 67.5C308 65.567 306.433 64 304.5 64C302.567 64 301 65.567 301 67.5C301 69.433 302.567 71 304.5 71Z" fill="white" fill-opacity="0.3"/>
        <path opacity="0.5" d="M334.5 11C336.433 11 338 9.433 338 7.5C338 5.567 336.433 4 334.5 4C332.567 4 331 5.567 331 7.5C331 9.433 332.567 11 334.5 11Z" fill="white" fill-opacity="0.3"/>
        <path opacity="0.5" d="M334.5 41C336.433 41 338 39.433 338 37.5C338 35.567 336.433 34 334.5 34C332.567 34 331 35.567 331 37.5C331 39.433 332.567 41 334.5 41Z" fill="white" fill-opacity="0.3"/>
        <path opacity="0.5" d="M334.5 71C336.433 71 338 69.433 338 67.5C338 65.567 336.433 64 334.5 64C332.567 64 331 65.567 331 67.5C331 69.433 332.567 71 334.5 71Z" fill="white" fill-opacity="0.3"/>
        <path opacity="0.5" d="M334.5 101C336.433 101 338 99.433 338 97.5C338 95.567 336.433 94 334.5 94C332.567 94 331 95.567 331 97.5C331 99.433 332.567 101 334.5 101Z" fill="white" fill-opacity="0.3"/>
        <path opacity="0.5" d="M364.5 71C366.433 71 368 69.433 368 67.5C368 65.567 366.433 64 364.5 64C362.567 64 361 65.567 361 67.5C361 69.433 362.567 71 364.5 71Z" fill="white" fill-opacity="0.3"/>
    </g>
    <defs>
        <linearGradient id="paint0_linear_4_56" x1="0" y1="0" x2="358.512" y2="182.091" gradientUnits="userSpaceOnUse">
            <stop stop-color="#8000ff"/>
            <stop offset="1" stop-color="#8C96FF"/>
        </linearGradient>
        <linearGradient id="paint1_linear_4_56" x1="127.494" y1="46.6271" x2="102.026" y2="21.1827" gradientUnits="userSpaceOnUse">
            <stop stop-color="#8697FF"/>
            <stop offset="1" stop-color="#8697FF" stop-opacity="0"/>
        </linearGradient>
        <clipPath id="clip0_4_56">
            <rect width="400" height="105" fill="white"/>
        </clipPath>
    </defs>
</svg>
