<svg width="12" height="13" viewBox="0 0 12 13" fill="none" xmlns="http://www.w3.org/2000/svg">
    <path fill-rule="evenodd" clip-rule="evenodd" d="M12.1423 0.0362848L7.67874 0.0181424L3.23859 0C3.23859 1.07947 2.10219 1.95938 0.708058 1.95938C0.696343 1.95938 0.696343 1.95938 0.684627 1.95938L0.649481 6.34985C0.637766 9.05307 2.16077 10.5135 5.35908 12.0466V11.0125C4.46871 10.568 3.74235 10.1235 3.18001 9.62455C2.19592 8.76279 1.7273 7.76496 1.73902 6.36799L1.76245 2.65786H1.78588C2.96914 2.65786 3.9298 1.91403 3.9298 1.0069L7.69045 1.02505L11.4628 1.04319C11.4862 1.94124 12.4235 2.65786 13.5833 2.66694L13.5482 6.42242C13.5364 9.08028 11.7674 10.3049 8.07706 11.8289V12.8358C10.2093 11.9559 11.8026 11.1667 12.8804 10.2323C14.0402 9.22542 14.6143 8.04616 14.626 6.41335L14.6494 1.96845C13.2787 1.95031 12.1775 1.09762 12.1423 0.0362848Z" fill="url(#paint0_linear_11_45)"/>
    <path fill-rule="evenodd" clip-rule="evenodd" d="M7.503 7.35675C7.13982 7.35675 6.44861 7.38397 5.79254 7.48375C5.67539 7.50189 5.58167 7.5926 5.58167 7.68332C5.59338 8.12781 5.64024 9.40685 5.65196 11.1667C5.65196 11.4932 5.65196 11.8379 5.65196 12.1917C6.23773 12.4638 7.69044 13.0263 7.7373 12.999C7.74902 12.6453 7.76073 12.2733 7.77245 11.9468C7.83103 9.62455 7.78417 8.06431 7.76073 7.53818C7.76073 7.43839 7.64358 7.34768 7.503 7.35675Z" fill="url(#paint1_linear_11_45)"/>
    <path fill-rule="evenodd" clip-rule="evenodd" d="M7.40926 2.38573C7.16324 2.34037 6.43688 2.43109 6.15571 2.48551C5.87454 2.53994 5.6871 2.68508 5.64023 2.96629C5.60509 3.21121 5.6168 6.08678 5.6168 6.82155C5.95655 6.78527 6.2963 6.75805 6.62433 6.73084C6.97579 6.70363 7.32726 6.68548 7.67872 6.66734C7.667 6.54034 7.63186 6.43149 7.57328 6.3952C7.49127 6.34078 7.5147 6.29542 7.71386 6.10493C7.90131 5.91443 7.77244 5.62415 7.58499 5.46994C7.40926 5.30666 7.49127 5.24316 7.64357 5.11616C7.79587 4.99824 7.76073 4.64446 7.60843 4.49025C7.45613 4.33604 7.53813 4.27254 7.64357 4.15462C7.74901 4.03669 7.77244 3.75548 7.62014 3.53777C7.46784 3.32006 7.56156 3.30192 7.7373 3.00257C7.91303 2.72136 7.65529 2.44016 7.40926 2.38573Z" fill="url(#paint2_linear_11_45)"/>
    <path fill-rule="evenodd" clip-rule="evenodd" d="M10.2093 6.92133C10.8302 6.38613 11.0176 5.56972 10.9474 4.74424C10.8653 3.89155 10.5022 3.02979 10.0218 2.4583C9.55322 1.89588 8.45197 1.80517 7.65532 1.89588C7.13984 1.95938 6.64779 2.08638 6.14403 2.17709C5.60512 2.27687 5.2888 2.24059 5.55826 2.73951C5.72227 2.44016 6.19089 2.35852 6.60093 2.30409C6.89381 2.2678 7.19842 2.23152 7.46787 2.30409C7.74904 2.37666 7.98335 2.59437 7.92477 2.81208C8.28795 2.75765 8.80343 2.70322 9.14318 2.82115C9.81096 3.057 9.95154 3.82805 9.98669 4.32697C10.0218 4.88938 9.92811 5.49715 9.6938 6.03236C9.61179 6.20471 9.51807 6.38613 9.34234 6.51313C9.11975 6.67641 8.68627 6.72177 8.38167 6.75805C7.09298 6.90319 5.75742 6.83969 4.53901 7.17533C4.36328 7.22068 4.19927 7.27511 4.09383 7.40211C4.03525 7.47468 4.01182 7.56539 4.05868 7.64703C4.16412 7.8466 4.55073 7.81031 4.82018 7.74682C4.92562 7.7196 5.03106 7.69239 5.1365 7.66517C5.18336 7.6561 5.23022 7.63796 5.25365 7.61982C5.25365 7.61075 5.26537 7.61075 5.26537 7.60168C5.30052 7.55632 5.26537 7.49282 5.27709 7.43839C5.30052 7.3114 5.49968 7.26604 5.66369 7.25697C6.2729 7.21161 6.8821 7.17533 7.47959 7.12997C7.60846 7.1209 7.73733 7.11183 7.85448 7.15719C7.97163 7.20254 8.05364 7.3114 7.98335 7.40211C8.75657 7.40211 9.71723 7.35675 10.2093 6.92133Z" fill="url(#paint3_linear_11_45)"/>
    <defs>
        <linearGradient id="paint0_linear_11_45" x1="1.6066" y1="9.78789" x2="11.7652" y2="-2.43553" gradientUnits="userSpaceOnUse">
            <stop stop-color="#00EAFF"/>
            <stop offset="0.2487" stop-color="#0080FF"/>
            <stop offset="0.5214" stop-color="#8000FF"/>
            <stop offset="0.7841" stop-color="#E619E6"/>
            <stop offset="1" stop-color="#E51A5D"/>
        </linearGradient>
        <linearGradient id="paint1_linear_11_45" x1="4.28396" y1="12.013" x2="14.4426" y2="-0.210417" gradientUnits="userSpaceOnUse">
            <stop stop-color="#00EAFF"/>
            <stop offset="0.2487" stop-color="#0080FF"/>
            <stop offset="0.5214" stop-color="#8000FF"/>
            <stop offset="0.7841" stop-color="#E619E6"/>
            <stop offset="1" stop-color="#E51A5D"/>
        </linearGradient>
        <linearGradient id="paint2_linear_11_45" x1="0.691453" y1="9.02734" x2="10.8501" y2="-3.19607" gradientUnits="userSpaceOnUse">
            <stop stop-color="#00EAFF"/>
            <stop offset="0.2487" stop-color="#0080FF"/>
            <stop offset="0.5214" stop-color="#8000FF"/>
            <stop offset="0.7841" stop-color="#E619E6"/>
            <stop offset="1" stop-color="#E51A5D"/>
        </linearGradient>
        <linearGradient id="paint3_linear_11_45" x1="1.19058" y1="9.44213" x2="11.3492" y2="-2.78128" gradientUnits="userSpaceOnUse">
            <stop stop-color="#00EAFF"/>
            <stop offset="0.2487" stop-color="#0080FF"/>
            <stop offset="0.5214" stop-color="#8000FF"/>
            <stop offset="0.7841" stop-color="#E619E6"/>
            <stop offset="1" stop-color="#E51A5D"/>
        </linearGradient>
    </defs>
</svg>
